<?xml version="1.0" encoding="utf-8"?>
<!-- Generator: Adobe Illustrator 18.1.1, SVG Export Plug-In . SVG Version: 6.00 Build 0)  -->
<svg version="1.1" id="Layer_1" xmlns="http://www.w3.org/2000/svg" xmlns:xlink="http://www.w3.org/1999/xlink" x="0px" y="0px"
	 viewBox="164.9 332.1 278.3 97.9" enable-background="new 164.9 332.1 278.3 97.9" xml:space="preserve">
<g id="Layer_1_1_">
	<g>
		<path d="M191.7,394.8c0,16.8-5.9,21.3-15.8,21.3c-3.7,0-7-0.8-9.4-1.6l-1.6,9c2.8,1.2,7.8,2,11.9,2c14.8,0,26-7,26-29.9V338h-11.1
			V394.8z"/>
		<path d="M273.5,389c0,19-8.2,27.4-20.9,27.4c-11.5,0-20.1-8.2-20.1-27.4v-51h-11.2v50.7c0,26.7,13.3,36.8,30.9,36.8
			c18.6,0,32.6-10.9,32.6-37.3V338h-11.2L273.5,389L273.5,389z"/>
		<polygon points="315.1,338 304,338 304,424.1 351.9,424.1 351.9,414.9 315.1,414.9 		"/>
		<rect x="364.3" y="338" width="11.1" height="86.1"/>
		<polygon points="405.9,414.9 405.9,383.8 439.4,383.8 439.4,374.6 405.9,374.6 405.9,347.4 441.3,347.4 441.3,338 394.8,338 
			394.8,424.1 443.2,424.1 443.2,414.9 		"/>
	</g>
</g>
<g id="Layer_2">
	<path fill="none" stroke="#7D7D7D" stroke-width="18" stroke-miterlimit="10" d="M196.5,332.1v68.2c0,0-0.6,18.2-12.7,19.5
		c-12.1,1.3-8.3,3.9-18.9,0"/>
</g>
</svg>
