<?xml version="1.0" encoding="utf-8"?>
<!-- Generator: Adobe Illustrator 18.1.1, SVG Export Plug-In . SVG Version: 6.00 Build 0)  -->
<svg version="1.1" id="Layer_1" xmlns="http://www.w3.org/2000/svg" xmlns:xlink="http://www.w3.org/1999/xlink" x="0px" y="0px"
	 viewBox="164.9 332.1 278.3 97.9" enable-background="new 164.9 332.1 278.3 97.9" xml:space="preserve">
<g id="Layer_1_1_">
	<g>
		<path d="M191.7,394.8c0,16.8-5.9,21.3-15.8,21.3c-3.7,0-7-0.8-9.4-1.6l-1.6,9c2.8,1.2,7.8,2,11.9,2c14.8,0,26-7,26-29.9V338h-11.1
			V394.8z"/>
		<path d="M273.5,389c0,19-8.2,27.4-20.9,27.4c-11.5,0-20.1-8.2-20.1-27.4v-51h-11.2v50.7c0,26.7,13.3,36.8,30.9,36.8
			c18.6,0,32.6-10.9,32.6-37.3V338h-11.2L273.5,389L273.5,389z"/>
		<polygon points="315.1,338 304,338 304,424.1 351.9,424.1 351.9,414.9 315.1,414.9 		"/>
		<rect x="364.3" y="338" width="11.1" height="86.1"/>
		<polygon points="405.9,414.9 405.9,383.8 439.4,383.8 439.4,374.6 405.9,374.6 405.9,347.4 441.3,347.4 441.3,338 394.8,338 
			394.8,424.1 443.2,424.1 443.2,414.9 		"/>
	</g>
</g>
<g id="Layer_2">
	<path fill="none" stroke="#F7F7F9" stroke-width="18" stroke-miterlimit="10" d="M196.5,332.1v68.2c0,0-0.6,18.2-12.7,19.5
		c-12.1,1.3-8.3,3.9-18.9,0"/>
</g>
<path fill="none" stroke="#F9F9F9" stroke-width="23" stroke-miterlimit="10" d="M228.1,337.9c-0.5,16.7-0.9,33.4-1.4,50.1
	c-0.1,3.9-0.2,8,1.1,11.7c3.4,10,15,14.1,25.1,16.9c2.9,0.8,5.8,1.6,8.8,1.6c11,0,19-11,21.1-21.8c1.2-5.9,1.2-12,1.2-18
	c0-9.9,0-19.8,0-29.7c0-4.4,0-9-1.9-13"/>
<path fill="none" stroke="#F7F7F9" stroke-width="18" stroke-miterlimit="10" d="M307.5,335.8c0.2,19.2,0.5,38.3,0.7,57.5
	c0.1,6.7,0.2,13.5,2,20c12.7,1.6,25.4,3.2,38.1,4.8"/>
<path fill="none" stroke="#F7F7F9" stroke-width="18" stroke-miterlimit="10" d="M369.5,338c1,28.7,2,57.3,3,86"/>
<path fill="none" stroke="#F7F7F9" stroke-width="18" stroke-miterlimit="10" d="M441,344.1c-12.1-0.1-24.2-0.2-36.3-0.1
	c-0.8,0-1.6,0-2.1,0.6c-0.6,0.6-0.6,1.4-0.6,2.2c0,7.5-3.4,27.9,2.6,32.1c6.1,4.3,30.7,0.1,38.5,0.1c-13.2,0-27.4,0-40.7,0
	c-0.7,0-1.4,0-1.8,0.5c-0.4,0.4-0.4,1.1-0.4,1.7c-0.1,8.7-0.1,17.4-0.2,26.1c0,4.3,0,9,2.4,12.6c13.3,0,26.6,0.1,40,0.1
	c1.6,0,3.7-0.5,3.6-2.1"/>
</svg>
